<svg width="40" height="36" viewBox="0 0 40 36" fill="none" xmlns="http://www.w3.org/2000/svg">
<g clip-path="url(#clip0)">
<path d="M34.92 15.0957C35.065 14.2504 35.1555 13.3236 35.1783 12.2843C35.1696 7.82799 32.853 6.25113 32.4072 5.5119C33.0637 2.13539 32.2985 0.599526 31.9426 0.0737573C30.6299 -0.355282 27.3756 1.18111 25.5975 2.26266C22.6985 1.48122 16.5719 1.55749 14.2744 2.46492C10.0353 -0.33016 7.79328 0.0960216 7.79328 0.0960216C7.79328 0.0960216 6.34379 2.48944 7.4101 5.99088C6.01534 7.62753 4.97575 8.78468 4.97575 11.854C4.97575 12.5891 5.02533 13.2837 5.10947 13.952C6.31063 19.7677 11.315 22.2766 16.2307 22.7093C15.491 23.2269 14.6029 24.2063 14.4801 25.3413C13.5506 25.8947 11.6809 26.0776 10.2271 25.6567C8.18993 25.064 7.4101 21.3493 4.35944 21.8792C3.69936 21.9929 3.83054 22.3938 4.40217 22.7356C5.33157 23.2907 6.20689 23.9808 6.8816 25.4574C7.39981 26.591 8.48971 28.6151 11.9356 28.6151C13.3036 28.6151 14.2618 28.4663 14.2618 28.4663C14.2618 28.4663 14.2878 31.3551 14.2878 32.4818C14.2878 33.7783 12.3875 34.1424 12.3875 34.7644C12.3875 35.0118 13.0165 35.0353 13.5219 35.0353C14.5209 35.0353 16.5992 34.2691 16.5992 32.9215C16.5992 31.8506 16.6178 28.2519 16.6178 27.6217C16.6178 26.2447 17.4192 25.8062 17.4192 25.8062C17.4192 25.8062 17.5173 33.157 17.2263 34.1425C16.8851 35.3014 16.267 35.1368 16.267 35.6525C16.267 36.4222 18.7656 35.8407 19.5944 34.1559C20.2355 32.84 19.9484 25.6315 19.9484 25.6315L20.6168 25.6181C20.6168 25.6181 20.6245 28.9195 20.6015 30.4278C20.5774 31.99 20.4023 33.9649 21.41 34.897C22.0714 35.51 24.0976 36.5857 24.0976 35.6027C24.0976 35.033 22.6787 34.5622 22.6787 33.0187V25.9086C23.5407 25.9086 23.7189 28.2457 23.7189 28.2457L24.0296 32.5878C24.0296 32.5878 23.8233 34.1723 25.8884 34.8335C26.6174 35.0686 28.177 35.1326 28.2501 34.7379C28.3234 34.3423 26.3722 33.7572 26.3537 32.5309C26.3436 31.784 26.39 31.3468 26.39 28.098C26.39 24.851 25.9163 23.6499 24.2657 22.6927C29.0524 22.2403 34.0243 20.2718 34.92 15.0957Z" fill="#4D4D4E"/>
</g>
<defs>
<clipPath id="clip0">
<rect width="39.095" height="36" fill="white"/>
</clipPath>
</defs>
</svg>
