<svg width="40" height="36" viewBox="0 0 40 36" fill="none" xmlns="http://www.w3.org/2000/svg">
<g clip-path="url(#clip0)">
<path d="M9.7429 11.5817H1.89451C1.54619 11.5817 1.26395 11.8417 1.26395 12.1623V35.3798C1.26395 35.7005 1.54619 35.9604 1.89451 35.9604H9.7429C10.0912 35.9604 10.3735 35.7005 10.3735 35.3798V12.1623C10.3735 11.8417 10.0912 11.5817 9.7429 11.5817Z" fill="#4D4D4E"/>
<path d="M5.82153 0.0396729C2.96583 0.0396729 0.642578 2.17668 0.642578 4.8034C0.642578 7.43129 2.96583 9.5691 5.82153 9.5691C8.67497 9.5691 10.9963 7.43117 10.9963 4.8034C10.9965 2.17668 8.67497 0.0396729 5.82153 0.0396729Z" fill="#4D4D4E"/>
<path d="M29.7058 11.0045C26.5536 11.0045 24.2234 12.2523 22.8101 13.6701V12.1622C22.8101 11.8416 22.5278 11.5816 22.1795 11.5816H14.6633C14.315 11.5816 14.0327 11.8416 14.0327 12.1622V35.3797C14.0327 35.7004 14.315 35.9603 14.6633 35.9603H22.4945C22.8429 35.9603 23.1251 35.7004 23.1251 35.3797V23.8924C23.1251 20.0215 24.2669 18.5134 27.1973 18.5134C30.3887 18.5134 30.6423 20.931 30.6423 24.0916V35.3798C30.6423 35.7005 30.9246 35.9604 31.2729 35.9604H39.107C39.4554 35.9604 39.7376 35.7005 39.7376 35.3798V22.6446C39.7376 16.8887 38.5457 11.0045 29.7058 11.0045Z" fill="#4D4D4E"/>
</g>
<defs>
<clipPath id="clip0">
<rect width="39.095" height="36" fill="white" transform="translate(0.642578)"/>
</clipPath>
</defs>
</svg>
